# xmcd
#
# Track frame offsets:
#	150
#	19372
#	34575
#	62772
#	77190
#	98712
#	118104
#	132095
#	153560
#	177467
#	196520
#	213172
#	234080
#	245592
#	260840
#	289690
#
# Disc length: 3874 seconds
#
# Revision: 1
# Processed by: cddbd v1.5.2PL0 Copyright (c) Steve Scherf et al.
# Submitted via: audiograbber 1.83.01
#
DISCID=db0f2010
DTITLE=Sound Choice - SC8449
DYEAR=1900
DGENRE=Country
TTITLE0=Charlie Daniels Band - Long Haired Country Boy
TTITLE1=The Allman Brothers Band - Midnight Rider
TTITLE2=The Marshall Tucker Band - Can't You See
TTITLE3=Black Oak Arkansas - Jim Dandy
TTITLE4=Atlantic Rhythm Section - So Into You
TTITLE5=Little Feat - Dixie Chicken
TTITLE6=Steve Miller Band - Take The Money And Run
TTITLE7=Elvin Bishop - Fooled Around And Fell In Love
TTITLE8=Molly Hatchet - Flirtin' With Disaster
TTITLE9=The Black Crowes - Good Friday
TTITLE10=Little Feat - Oh Atlanta
TTITLE11=Pure Prairie League - Amie
TTITLE12=ZZ Top - Tush
TTITLE13=Charlie Daniels Band - The South's Gonna Do It
TTITLE14=Charlie Daniels Band - Devil Went Down To Georgia
TTITLE15=Data - Data Track
EXTD=
EXTT0=
EXTT1=
EXTT2=
EXTT3=
EXTT4=
EXTT5=
EXTT6=
EXTT7=
EXTT8=
EXTT9=
EXTT10=
EXTT11=
EXTT12=
EXTT13=
EXTT14=
EXTT15=
PLAYORDER=
